<svg xmlns="http://www.w3.org/2000/svg" xmlns:xlink="http://www.w3.org/1999/xlink" x="0px" y="0px" width="25px" height="25px" viewBox="0 5 50 50" enable-background="new 0 0 50 50" xml:space="preserve">
    <g transform="translate(0, 4)">
        <path fill="white"
            d="M35.602,32.497c-0.15-0.043-0.484,0.035-0.769,0.035
            c-1.123,0-2.719,0.256-2.865-0.594c-0.223-1.289,1.516-0.828,2.654-0.908c-0.104-0.428-0.42-0.738-0.732-1.223
            c-0.155-0.24-0.576-1.135-0.84-1.225c-0.131-0.043-0.412,0.063-0.559,0.07c-1.189,0.076-3.437,0.313-3.215-0.943
            c0.16-0.91,1.752-0.502,2.795-0.594c-0.018-0.221-0.176-0.436-0.313-0.629c-0.302-0.422-0.526-0.746-0.839-1.223
            c-0.079-0.121-0.344-0.605-0.42-0.63c-0.097-0.032-0.427,0.123-0.594,0.14c-0.672,0.066-2.128,0.105-2.655,0
            c-0.34-0.068-0.666-0.375-0.699-0.699c-0.134-1.312,1.789-0.759,2.97-0.874c-0.174-0.42-0.472-0.791-0.769-1.258
            c-0.264-0.415-0.643-0.809-0.803-1.292c-0.063-0.189,0.012-0.79-0.105-0.909c-0.034-0.034-0.343-0.002-0.489,0
            c-1.058,0.014-2.283,0.153-2.376-0.699c-0.138-1.26,1.721-0.755,2.865-0.908c-0.053-1.065-0.066-2.17-0.104-3.25
            c-1.133-0.065-2.686,0.304-2.761-0.734c-0.081-1.126,1.553-0.798,2.726-0.839c0.017-0.826,0.002-2.82,0.245-3.529
            c0.092-0.27,0.299-0.452,0.279-0.699c-2.261,0-3.925,0-6.185,0c0.244,0.643,0.496,1.27,0.559,2.097c0.095,1.253-0.034,3.71,0,5.137
            c0.015,0.623,0.035,1.324,0.035,1.992c0,0.866,0.135,1.857-0.07,2.376c-0.211,0.537-0.727,1.117-1.083,1.642
            c-1.905,2.806-3.586,5.427-5.451,8.179c-0.688,1.014-1.688,2.223-2.097,3.389c-0.529,1.508-0.096,3.209,1.013,3.738
            c0.603,0.289,1.587,0.211,2.516,0.211c5.131,0,9.789,0,14.851,0c0.876,0,1.811,0.086,2.517,0c0.987-0.123,1.961-0.818,2.096-1.818
            c0.16-1.186-0.305-2.066-0.699-2.725C36.11,33.101,35.868,32.573,35.602,32.497z"/>
            <!--c0,10.981,8.901,19.882,19.882,19.882S44.882,35.981,44.882,25C44.882,14.02,35.98,5.118,25,5.118z-->
        <path fill="none" stroke="black"
            d="
            M35.321,39.312
            c-0.979,0.195-2.162,0.105-3.318,0.105c-4.529,0-8.377-0.035-13.035-0.035c-1.133,0-2.3,0.113-3.39,0
            c-1.973-0.205-3.356-1.729-3.424-3.844c-0.062-1.922,0.81-3.219,1.643-4.473c2.226-3.352,4.439-6.648,6.744-10.1
            c0.202-0.302,0.512-0.685,0.559-0.943c0.097-0.523-0.035-1.268-0.035-1.957c0-0.669,0.022-1.353,0-1.957
            c-0.061-1.626,0.176-4.968-0.35-6.081c-0.131-0.278-0.349-0.596-0.594-0.874c-0.235-0.266-0.51-0.517-0.455-0.944
            c0.051-0.392,0.271-0.585,0.699-0.664c0.732-0.134,1.946-0.035,2.865-0.035c2.008,0,2.939,0,5.066,0
            c0.996,0,2.078-0.135,2.271,0.559c0.126,0.453-0.148,0.76-0.42,1.083c-0.351,0.418-0.681,0.853-0.803,1.468
            c-0.129,0.646-0.065,2.43-0.035,3.11c0.055,1.24,0.023,2.874,0.07,4.193c0.025,0.747-0.068,1.532,0.035,2.096
            c0.049,0.275,0.391,0.667,0.594,0.979c2.284,3.513,4.443,6.801,6.709,10.273c0.766,1.176,1.805,2.488,1.782,4.367
            C38.477,37.71,37.087,38.958,35.321,39.312z"/>
    </g>
</svg>
